<?xml version="1.0" encoding="UTF-8" standalone="no"?>
<!-- Created with Inkscape (http://www.inkscape.org/) -->

<svg
   width="153"
   height="153"
   viewBox="0 0 40.481249 40.481252"
   version="1.1"
   id="svg5"
   inkscape:version="1.1.2 (b8e25be833, 2022-02-05)"
   sodipodi:docname="mask-icon.svg"
   xmlns:inkscape="http://www.inkscape.org/namespaces/inkscape"
   xmlns:sodipodi="http://sodipodi.sourceforge.net/DTD/sodipodi-0.dtd"
   xmlns="http://www.w3.org/2000/svg"
   xmlns:svg="http://www.w3.org/2000/svg">
  <sodipodi:namedview
     id="namedview7"
     pagecolor="#ffffff"
     bordercolor="#666666"
     borderopacity="1.0"
     inkscape:pageshadow="2"
     inkscape:pageopacity="0.0"
     inkscape:pagecheckerboard="0"
     inkscape:document-units="px"
     showgrid="false"
     inkscape:zoom="4.3994184"
     inkscape:cx="56.825693"
     inkscape:cy="66.145107"
     inkscape:window-width="1920"
     inkscape:window-height="1137"
     inkscape:window-x="-8"
     inkscape:window-y="-8"
     inkscape:window-maximized="1"
     inkscape:current-layer="layer1"
     fit-margin-top="2"
     fit-margin-left="2"
     fit-margin-right="2"
     fit-margin-bottom="2"
     units="px" />
  <defs
     id="defs2" />
  <g
     inkscape:label="Layer 1"
     inkscape:groupmode="layer"
     id="layer1"
     transform="translate(-69.156838,-79.222098)">
    <path
       style="fill:#000000;stroke-width:0.264583"
       d="m 86.969531,115.20531 c -1.30002,-0.63593 -1.75207,-0.92069 -3.46403,-2.18208 -0.74104,-0.54602 -1.53017,-0.99276 -1.75362,-0.99276 -0.73581,0 -2.31677,-0.791 -2.65117,-1.32646 -0.18055,-0.28909 -0.47019,-0.52563 -0.64366,-0.52563 -0.17347,0 -0.39098,-0.23812 -0.48336,-0.52916 -0.13091,-0.41247 -0.400321,-0.52917 -1.221591,-0.52917 -1.23157,0 -2.23072,-0.46541 -3.45427,-1.60901 -0.48421,-0.45258 -1.31804,-1.11911 -1.85295,-1.48119 -1.49749,-1.01363 -2.14189,-2.86719 -1.40905,-4.05296 0.25617,-0.41448 2.15727,-1.3235 2.76795,-1.3235 0.4704,0 0.53971,-0.16788 0.53971,-1.307304 0,-0.71902 0.12871,-1.38685 0.28602,-1.48407 0.15957,-0.0986 0.21302,-0.46764 0.1209,-0.83468 -0.0955,-0.38055 -0.0209,-0.84242 0.177,-1.09561 0.30679,-0.39252 0.29365,-0.39967 -0.1273,-0.0693 -0.25817,0.20264 -0.54267,0.29517 -0.6322,0.20564 -0.17819,-0.17819 0.69208,-1.39527 1.99128,-2.78487 0.82202,-0.8792 1.03728,-1.36108 0.60802,-1.36108 -0.12217,0 -0.35774,0.29766 -0.5235,0.66146 -0.5873,1.289 -0.91531,0.77206 -0.71349,-1.12448 0.21072,-1.98035 0.28188,-2.18281 0.76714,-2.18281 0.18432,0 0.62378,-0.31347 0.97657,-0.6966 l 0.64143,-0.69661 -1.05833,0.17993 -1.05834,0.17992 1.05834,-0.66569 c 1.13264,-0.71243 2.068841,-0.83818 3.157771,-0.42417 0.75114,0.28558 0.80686,0.21125 0.40479,-0.54001 -0.31894,-0.59596 -10e-4,-0.67771 0.85411,-0.21987 0.40107,0.21464 0.59463,0.21227 0.73136,-0.009 0.10227,-0.16548 0.37051,-0.23004 0.59609,-0.14348 0.3924,0.15058 6.0237,-1.42186 7.0401,-1.96582 0.26866,-0.14378 0.64208,-0.44651 0.82983,-0.67274 0.18775,-0.22622 0.70243,-0.41132 1.14373,-0.41132 0.78642,0 0.79281,0.0105 0.322,0.53079 -0.70735,0.78162 -0.32867,0.90454 0.39932,0.12963 0.34124,-0.36323 0.7082,-0.66042 0.81548,-0.66042 0.39737,0 0.0576,0.81994 -0.50219,1.21206 -0.78455,0.54953 -0.72795,0.9008 0.14875,0.9232 0.40019,0.0102 0.96168,0.11011 1.24777,0.22195 0.2861,0.11184 0.96017,0.0917 1.49796,-0.0448 0.65295,-0.16574 1.13938,-0.15425 1.46421,0.0346 0.4192,0.2437 0.36974,0.28389 -0.35786,0.29083 -1.30306,0.0124 -1.27482,0.45692 0.0416,0.65433 1.60828,0.24117 2.45571,0.70321 5.821579,3.17403 2.71389,1.99222 2.85427,2.13912 2.1635,2.26392 l -0.7387,0.13347 0.81371,0.77773 c 0.5336,0.51 0.71038,0.8416 0.51352,0.96326 -0.19017,0.11754 -0.0934,0.25116 0.26393,0.36458 0.37501,0.11903 0.56413,0.39793 0.56413,0.83199 0,0.35911 0.19228,0.9464 0.4273,1.30508 0.23502,0.35868 0.30654,0.65215 0.15893,0.65215 -0.38923,0 -0.52927,2.34649 -0.14876,2.49251 0.20969,0.0805 0.24246,0.41088 0.10236,1.032074 l -0.20608,0.91371 0.95761,-0.11638 c 0.66287,-0.0806 1.22224,0.0496 1.81749,0.42281 0.77956,0.4888 0.8599,0.66015 0.8599,1.83406 0,1.15252 -0.11635,1.41479 -1.05804,2.38515 -0.58193,0.59963 -1.19083,1.09023 -1.35314,1.09023 -0.1623,0 -0.99758,0.60858 -1.85618,1.35239 -1.30325,1.12903 -1.69414,1.33286 -2.36674,1.23415 -0.68521,-0.10057 -0.86777,0.002 -1.22113,0.68519 -0.6078,1.17534 -0.65613,1.20876 -4.953899,3.42495 l -3.94558,2.03457 -2.13983,-0.006 c -1.578,-0.004 -2.41771,-0.14173 -3.19817,-0.5235 z m 7.07344,-1.41752 c 0.94576,-0.6342 2.00865,-1.22564 2.36198,-1.31432 0.35333,-0.0887 1.37434,-0.63431 2.26891,-1.21249 1.338979,-0.86543 1.683379,-1.24111 1.948269,-2.12526 0.17698,-0.5907 0.46129,-1.074 0.63181,-1.074 0.19219,0 0.28794,-0.37711 0.25192,-0.99219 -0.0737,-1.25882 0.36852,-2.77289 0.7684,-2.63064 0.16812,0.0598 0.28224,0.43067 0.25359,0.82414 -0.0726,0.99722 0.81349,0.8255 0.92956,-0.18014 0.0461,-0.39894 0.21472,-0.72534 0.37483,-0.72534 0.16011,0 0.21358,-0.0775 0.11883,-0.17228 -0.0948,-0.0948 0.0342,-0.32909 0.28663,-0.52075 0.61232,-0.46496 0.87283,-0.45299 0.68688,0.0316 -0.0838,0.21828 -0.028,0.39687 0.12383,0.39687 0.15188,0 0.31344,-0.38695 0.35904,-0.85988 0.0784,-0.81301 0.14062,-0.8599 1.14124,-0.8599 1.05595,0 1.05852,0.002 1.1397,1.12447 0.10399,1.43727 -0.59491,1.59898 -0.85766,0.19844 -0.28761,-1.5331 -0.87366,-1.15765 -0.84906,0.54395 0.0148,1.02296 -0.0969,1.54472 -0.36732,1.71574 -0.66136,0.41827 -0.82238,0.28572 -0.73623,-0.60605 0.0604,-0.62488 -0.0254,-0.85989 -0.3138,-0.85989 -0.30095,0 -0.37774,0.26135 -0.31771,1.08128 0.0937,1.27926 -0.48783,1.99445 -1.22582,1.50769 -0.24247,-0.15992 -0.40258,-0.45068 -0.3558,-0.64612 0.0582,-0.24332 -0.002,-0.27016 -0.19083,-0.0851 -0.29105,0.28506 -0.40253,0.92537 -0.33301,1.9126 0.0521,0.74004 0.96474,0.81373 1.34223,0.10839 0.14333,-0.26781 1.16722,-1.11368 2.27532,-1.87971 2.01463,-1.39271 2.61691,-2.2029 2.54618,-3.4251 -0.0832,-1.43808 -1.97087,-1.75046 -4.13744,-0.68469 -1.88194,0.92576 -2.33802,0.88164 -2.11214,-0.2043 0.0984,-0.47294 0.33683,-1.18731 0.52991,-1.5875 0.27963,-0.57957 0.28278,-0.727604 0.0154,-0.727604 -0.18457,0 -0.53956,-0.22538 -0.78885,-0.50085 -0.41183,-0.45506 -0.4173,-0.58694 -0.0598,-1.44249 0.38813,-0.92895 0.38121,-0.955 -0.51379,-1.93211 -0.49896,-0.54475 -0.90721,-1.20532 -0.90721,-1.46792 0,-0.30107 -0.19549,-0.47746 -0.529169,-0.47746 -0.29104,0 -0.52917,0.12133 -0.52917,0.26962 0,0.15581 -0.28049,0.19923 -0.66445,0.10286 -0.53777,-0.13497 -0.63326,-0.0855 -0.50086,0.25954 0.25557,0.666 -0.24042,0.507 -1.55889,-0.49973 -0.66704,-0.50932 -1.48083,-0.92604 -1.80841,-0.92604 -0.58052,0 -0.58259,0.01 -0.082,0.38846 0.28248,0.21365 0.38082,0.39224 0.21854,0.39687 -0.16227,0.005 -0.57899,-0.21078 -0.92604,-0.47869 -0.34704,-0.26791 -0.90984,-0.55728 -1.25066,-0.64305 -0.58694,-0.14772 -0.5964,-0.13025 -0.17911,0.33085 0.41319,0.45657 0.40769,0.49723 -0.0885,0.65472 -0.29099,0.0924 -0.93634,-0.002 -1.43412,-0.21024 -1.25032,-0.52241 -3.75734,-0.85625 -3.51764,-0.4684 0.1,0.16173 0.36034,0.29406 0.57862,0.29406 0.21828,0 0.32329,0.11906 0.23335,0.26458 -0.0899,0.14552 -0.0176,0.26459 0.16078,0.26459 0.17836,0 0.25647,0.0678 0.17358,0.15071 -0.0829,0.0829 -1.36537,-0.26577 -2.84995,-0.77481 -1.48458,-0.50903 -2.85131,-0.86716 -3.03718,-0.79583 -0.18587,0.0713 -0.41292,0.59858 -0.50456,1.17168 -0.2089,1.30634 -0.88777,1.41371 -1.15145,0.1821 l -0.1841,-0.85989 -0.14002,0.90501 c -0.15685,1.01385 -0.80147,1.4589 -0.80147,0.55334 0,-0.50676 -0.0441,-0.52601 -0.39688,-0.17324 -0.21828,0.21829 -0.39687,0.75554 -0.39687,1.19391 0,0.43837 -0.11906,0.87062 -0.26458,0.96056 -0.14552,0.0899 -0.26459,0.39759 -0.26459,0.68368 0,0.28608 -0.424,1.3621 -0.942221,2.39115 -0.9329,1.852514 -0.93829,1.882514 -0.54522,3.036104 0.37537,1.10164 0.3702,1.1651 -0.0949,1.1651 -0.27054,0 -1.09951,-0.63664 -1.84216,-1.41477 l -1.35028,-1.41479 -1.58136,0.51212 c -1.4564,0.47166 -1.58136,0.57346 -1.58136,1.28841 0,1.10391 1.84393,3.04846 3.27418,3.45283 1.13844,0.32186 2.43266,1.22683 1.35603,0.94819 -0.29104,-0.0753 -0.76729,-0.23228 -1.05833,-0.3488 -1.07384,-0.4299 0.20761,0.74172 1.37956,1.26132 0.93113,0.41284 1.20379,0.43888 1.65364,0.15794 0.29627,-0.18502 0.538671,-0.48636 0.538671,-0.66963 0,-0.65915 0.5011,-0.31258 1.10466,0.764 0.33832,0.60348 1.14369,1.52622 1.78969,2.05052 0.64601,0.52431 1.07473,0.7871 0.95273,0.58397 -0.49306,-0.82085 1.34122,0.035 2.50292,1.16789 0.65485,0.63858 1.905,1.5223 2.77813,1.96382 1.3217,0.66837 1.90281,0.80334 3.47069,0.80613 1.78586,0.003 1.97207,-0.0563 3.60275,-1.14974 z m -7.99948,-2.73165 c -1.17825,-1.16731 -1.32932,-1.40756 -0.79375,-1.2623 0.3638,0.0987 0.95911,0.44921 1.32291,0.77897 0.78441,0.71102 3.12804,1.31287 4.34397,1.11555 0.47491,-0.0771 1.46113,-0.50787 2.19162,-0.95734 2.51617,-1.54822 2.26649,-0.63178 -0.29965,1.09988 -0.96484,0.65108 -1.29622,0.72338 -3.19323,0.69671 l -2.11667,-0.0298 z m 2.64583,-0.8828 c 0,-0.15142 -0.31898,-0.20872 -0.7276,-0.13071 -0.40019,0.0764 -0.57804,0.0685 -0.39523,-0.0176 0.18281,-0.0861 0.26488,-0.26568 0.18238,-0.39917 -0.089,-0.14406 -0.35853,-0.1311 -0.66311,0.0319 -0.36785,0.19687 -0.68164,0.18091 -1.10842,-0.0564 -1.05996,-0.58929 -3.9493,-1.2343 -4.86407,-1.08586 -0.95799,0.15546 -1.04084,0.0566 -0.61672,-0.73585 0.22187,-0.41458 0.1867,-0.51177 -0.18521,-0.51177 -0.85587,0 0.0226,-0.44001 1.81741,-0.91032 0.97559,-0.25564 2.22575,-0.80693 2.77813,-1.22509 1.17455,-0.88917 1.52532,-0.97216 1.15076,-0.27229 -0.33829,0.6321 -2.9e-4,0.7629 1.44105,0.55764 0.9465,-0.13479 0.99262,-0.1736 0.43639,-0.36724 -0.42645,-0.14846 -0.53634,-0.30213 -0.3496,-0.48887 0.18674,-0.18674 0.49741,-0.0953 0.98836,0.29087 0.3938,0.30977 0.58089,0.56322 0.41574,0.56322 -0.66298,0 -0.24913,0.53048 0.42734,0.54777 0.64475,0.0165 0.66735,0.0445 0.19844,0.24598 -0.78876,0.33894 -2.78146,0.28744 -3.86527,-0.0999 -0.89316,-0.3192 -0.99573,-0.29875 -1.5875,0.31652 -0.34795,0.36178 -0.96532,0.79777 -1.37192,0.96888 l -0.73928,0.3111 1.00386,0.44679 c 1.24313,0.55328 7.88377,0.85863 7.55463,0.34737 -0.30048,-0.46674 -0.26226,-1.51729 0.0515,-1.41458 0.15232,0.0499 0.31334,0.39574 0.35784,0.76862 0.0747,0.62622 0.21037,0.69182 1.77754,0.85965 1.61916,0.1734 3.1549,-0.10429 4.01076,-0.72521 0.52629,-0.38181 0.27824,-1.22264 -0.43492,-1.47424 -0.84924,-0.29962 -2.04658,-1.26568 -1.83371,-1.47951 0.0885,-0.0889 0.68386,0.0614 1.32292,0.33416 0.63906,0.27273 1.59206,0.57571 2.11779,0.67328 1.24568,0.2312 1.93894,0.98906 1.71629,1.87619 -0.20586,0.8202 -0.53068,0.85357 -1.05278,0.10817 -0.41784,-0.59655 -1.2225,-0.52538 -1.2225,0.10813 0,0.38285 -4.10087,1.89184 -4.48916,1.65186 -0.12548,-0.0776 -0.29784,0.009 -0.38303,0.19138 -0.12368,0.2654 -0.186,0.26573 -0.30923,0.002 -0.22981,-0.49243 -1.26281,-0.42874 -1.0729,0.0661 0.11503,0.29976 -0.0468,0.39688 -0.66146,0.39688 -0.61463,0 -0.77649,-0.0971 -0.66146,-0.39688 0.10308,-0.26855 -0.0134,-0.39681 -0.36026,-0.39681 -0.34691,0 -0.46334,0.12826 -0.36026,0.39687 0.0838,0.21828 0.0205,0.39688 -0.1406,0.39688 -0.16109,0 -0.29289,-0.12133 -0.29289,-0.26963 z M 76.94904,106.59886 c -0.25413,-0.66225 -0.19722,-2.24131 0.0808,-2.24131 0.13572,0 0.33036,0.26789 0.43254,0.59531 0.10218,0.32742 0.2769,0.65484 0.388261,0.7276 0.11136,0.0728 0.24414,0.37042 0.29507,0.66146 0.11787,0.67364 -0.948861,0.90268 -1.196651,0.25694 z m -2.15035,-0.44564 c -1.31488,-0.46255 -1.50181,-0.73361 -1.40876,-2.04286 0.0783,-1.10191 0.0302,-1.21587 -0.54744,-1.29754 -0.59831,-0.0846 -0.62527,-0.0298 -0.4882,0.99218 0.16637,1.24033 -0.001,1.34011 -0.68143,0.4058 -0.57474,-0.78939 -0.49926,-2.06252 0.12935,-2.18165 0.69929,-0.13252 2.45948,0.42501 3.10251,0.98271 0.51617,0.44766 0.53568,0.5367 0.16321,0.74514 -0.61633,0.34492 -0.22915,1.06742 0.67891,1.26686 0.59327,0.1303 0.77165,0.31753 0.77165,0.80992 0,0.71068 -0.39764,0.78454 -1.7198,0.31944 z m 16.124011,-0.61909 c 0.5973,-0.44523 1.36723,-0.49986 1.60575,-0.11393 0.26536,0.42937 0.71785,-0.0145 0.57431,-0.56335 -0.1823,-0.69715 0.78816,-0.67072 1.00977,0.0275 0.27039,0.85193 -0.0338,1.01421 -1.91888,1.02366 -1.61639,0.008 -1.73615,-0.0271 -1.27095,-0.37388 z m 10e-4,-1.46422 c -0.22704,-0.36737 0.27622,-0.88529 0.64111,-0.65978 0.30386,0.18778 0.10929,0.94742 -0.24267,0.94742 -0.12136,0 -0.30066,-0.12944 -0.39843,-0.28764 z m -3.75618,-0.30768 c 0.0606,-0.1819 0.3082,-0.36913 0.55029,-0.41608 0.30695,-0.0595 0.39184,0.0406 0.2805,0.33072 -0.1877,0.48912 -0.99277,0.57184 -0.83079,0.0854 z m 6.08554,-1.32204 c -1.28718,-0.41292 -1.03826,-0.6545 0.53956,-0.52366 1.07262,0.0889 1.48302,0.0154 1.75722,-0.31501 0.30838,-0.37158 0.29781,-0.40807 -0.0765,-0.26442 -0.23887,0.0917 -0.4343,0.0537 -0.4343,-0.0843 0,-0.15202 -0.49544,-0.1694 -1.25677,-0.0441 -1.72287,0.28359 -1.9751,0.27989 -1.78594,-0.0262 0.0899,-0.14552 -0.0367,-0.26458 -0.28136,-0.26458 -0.36283,0 -0.38494,-0.0722 -0.11983,-0.39168 0.38728,-0.46664 4.34216,-0.48823 5.09755,-0.0278 0.54597,0.33277 0.61649,0.94867 0.10861,0.94867 -0.19492,0 -0.49002,0.29766 -0.65579,0.66146 -0.33435,0.73382 -1.29516,0.84397 -2.89241,0.33159 z m -0.15434,-1.96319 c -0.097,-0.097 -0.25576,-0.097 -0.35278,0 -0.097,0.097 -0.0176,0.17639 0.17639,0.17639 0.19403,0 0.27341,-0.0794 0.17639,-0.17639 z m 2.64584,0 c -0.097,-0.097 -0.25577,-0.097 -0.35278,0 -0.097,0.097 -0.0176,0.17639 0.17639,0.17639 0.19402,0 0.2734,-0.0794 0.17639,-0.17639 z m -10.23056,1.8049 c 0,-0.31778 0.90829,-1.09934 1.2776,-1.09934 0.38102,0 0.38784,0.15373 0.036,0.81114 -0.26799,0.50074 -1.31361,0.73014 -1.31361,0.2882 z m -2.99142,-0.21021 c -0.39615,-0.39615 0.21169,-0.62322 1.61797,-0.60442 l 1.50574,0.0201 -0.92604,0.35662 c -1.0219,0.39353 -1.93701,0.48833 -2.19767,0.22767 z m -1.24062,-1.14732 c -0.33928,-0.21449 -0.32045,-0.30628 0.13229,-0.64489 0.55343,-0.413924 1.0535,-0.545654 3.08413,-0.812394 1.61117,-0.21164 1.88601,-0.8262 0.47602,-1.06442 -1.58875,-0.26842 -3.5765,0.30927 -3.64769,1.0601 -0.03,0.31607 -1.10878,0.52981 -1.09444,0.21684 0.005,-0.11927 0.40021,-0.67263 0.87721,-1.22969 0.78686,-0.91895 1.0168,-1.02641 2.48,-1.15909 2.05779,-0.18659 3.0406,0.043 2.93186,0.68492 -0.0447,0.26382 0.0973,0.69593 0.31559,0.96023 0.30387,0.36794 0.31898,0.50676 0.0645,0.59241 -0.1828,0.0615 -0.26507,0.22076 -0.18282,0.35385 0.0823,0.133094 -0.0506,0.241984 -0.29533,0.241984 -0.36546,0 -0.38608,0.0709 -0.11551,0.39688 0.26652,0.32114 0.25756,0.39687 -0.047,0.39687 -0.20699,0 -0.51923,-0.14287 -0.69385,-0.3175 -0.24695,-0.24694 -0.3175,-0.23966 -0.3175,0.0328 0,0.26314 -0.36486,0.32001 -1.46671,0.22864 -0.81541,-0.0676 -1.31474,-0.0252 -1.12448,0.0955 0.23086,0.14645 0.12697,0.2171 -0.31923,0.2171 -0.3638,0 -0.83947,-0.11254 -1.05704,-0.25008 z m 3.36663,-0.960004 c -0.0879,-0.0879 -0.31612,-0.0973 -0.50712,-0.0209 -0.21106,0.0845 -0.14837,0.147164 0.15986,0.159854 0.27891,0.0115 0.43518,-0.0511 0.34726,-0.138964 z m 0.9977,-0.10473 c -0.0899,-0.14552 -0.28258,-0.26458 -0.4281,-0.26458 -0.14552,0 -0.191,0.11906 -0.10107,0.26458 0.0899,0.145524 0.28259,0.264584 0.42811,0.264584 0.14552,0 0.191,-0.11906 0.10106,-0.264584 z m 5.42396,-0.77474 c 0,-0.37641 0.38412,-0.65387 1.46513,-1.05833 0.80583,-0.3015 1.78995,-0.54818 2.18694,-0.54818 0.81093,0 2.4833,0.81132 2.63973,1.28062 0.12399,0.37195 -0.03,0.37681 -1.72902,0.0546 -1.09762,-0.20816 -1.57758,-0.16189 -2.74435,0.26458 -1.74504,0.63784 -1.81843,0.63811 -1.81843,0.007 z m 12.982799,2.692974 c 1.03228,-0.73005 1.37508,-1.7412 0.78937,-2.328334 -0.13791,-0.13825 -0.33055,-1.0848 -0.42808,-2.10344 -0.0975,-1.01865 -0.40789,-2.38787 -0.68968,-3.04271 -0.28179,-0.65484 -0.51308,-1.25016 -0.51398,-1.32292 -7.9e-4,-0.0728 -0.25331,-0.40018 -0.5609,-0.7276 -0.51973,-0.55322 -0.52473,-0.59531 -0.0708,-0.59531 0.27782,0 -0.80586,-0.96986 -2.5129,-2.24896 -2.337509,-1.75152 -3.192689,-2.24896 -3.866319,-2.24896 -0.47572,0 -0.93853,-0.11906 -1.02847,-0.26458 -0.0899,-0.14552 -0.3847,-0.26459 -0.65502,-0.26459 -0.27033,0 -0.53119,-0.10748 -0.5797,-0.23885 -0.0485,-0.13138 -1.0407,-0.39151 -2.20486,-0.57807 -1.16417,-0.18657 -2.1634,-0.37386 -2.22052,-0.41621 -0.0571,-0.0424 0.0468,-0.25847 0.23084,-0.48026 0.27455,-0.33082 0.26338,-0.40327 -0.0622,-0.40327 -0.21828,0 -0.54509,0.17859 -0.72625,0.39687 -0.18115,0.21828 -0.49715,0.39688 -0.7022,0.39688 -0.20505,0 -1.06724,0.23393 -1.91598,0.51985 -1.48352,0.49976 -4.0076,1.05357 -5.25317,1.15261 -0.32742,0.026 -0.59531,0.20472 -0.59531,0.3971 0,0.26961 -0.3335,0.3081 -1.45521,0.16795 -1.18253,-0.14775 -1.455211,-0.10942 -1.455211,0.20454 0,0.21249 -0.25179,0.61316 -0.55953,0.89038 -0.53795,0.48458 -0.74093,0.86771 -1.14223,2.15601 -0.14653,0.47037 -0.0989,0.56064 0.22925,0.43471 0.68108,-0.26135 0.55994,1.80051 -0.14314,2.43636 -0.62975,0.56953 -1.55935,2.27015 -1.55935,2.85269 0,0.21195 0.1348,0.4303 0.29955,0.48522 0.20713,0.069 0.16632,0.35752 -0.13229,0.93495 -0.71858,1.38958 -0.56482,2.480774 0.4942,3.507214 l 0.92604,0.89756 v -0.69132 c 0,-0.38022 0.1341,-0.73601 0.298,-0.79064 0.35689,-0.11897 1.543461,-3.267414 1.549691,-4.111954 0.002,-0.32743 0.114,-0.59532 0.24795,-0.59532 0.13396,0 0.32707,-0.3802 0.42914,-0.8449 0.10206,-0.4647 0.34965,-1.00899 0.55019,-1.20953 0.20054,-0.20054 0.36461,-0.5347 0.36461,-0.74259 0,-0.20789 0.12757,-0.37798 0.28349,-0.37798 0.15591,0 0.46207,-0.17859 0.68035,-0.39687 0.53565,-0.53564 1.14589,-0.50154 1.18352,0.0662 0.0271,0.40879 0.0456,0.40513 0.15771,-0.0312 0.10823,-0.42117 0.30905,-0.47311 1.35837,-0.35133 0.67724,0.0786 1.81003,0.32904 2.51731,0.55652 1.11436,0.35841 1.24243,0.36116 0.95979,0.0206 -0.28291,-0.34089 -0.0938,-0.393 1.42602,-0.393 0.99174,0 1.75219,0.11483 1.75219,0.26458 0,0.14552 0.24232,0.26458 0.53848,0.26458 0.46494,0 0.49789,-0.0758 0.24128,-0.5553 -0.27518,-0.51418 -0.24158,-0.54446 0.45372,-0.40878 0.41299,0.0806 1.67363,0.28729 2.80142,0.45932 1.12779,0.17203 2.05052,0.41245 2.05052,0.53427 0,0.12182 0.38588,0.42103 0.85751,0.66492 0.74271,0.38408 1.06236,0.40113 2.38761,0.12741 1.642849,-0.33933 2.040409,-0.25226 2.057299,0.45055 0.006,0.24607 0.35366,0.84832 0.77277,1.33833 0.63455,0.74188 0.74385,1.07358 0.65339,1.98286 -0.14257,1.43313 0.0665,2.02101 0.7186,2.02101 0.46249,0 0.50788,0.11286 0.34581,0.859894 -0.1026,0.47295 -0.26958,0.91943 -0.37105,0.99219 -0.24938,0.17881 -0.56377,1.05833 -0.37831,1.05833 0.0813,0 0.61083,-0.32742 1.17667,-0.7276 z"
       id="path45530" />
  </g>
</svg>
